#tb 0: 1/25
0,          0,          0,        1,   196608, 0xf6e3aa30
0,          1,          1,        1,   196608, 0x5584acf9
0,          2,          2,        1,   196608, 0xa862775d
